<svg width="1200" height="800" viewBox="0 0 1200 800" fill="none" xmlns="http://www.w3.org/2000/svg">
  <defs>
    <linearGradient id="bg" x1="0" y1="0" x2="1200" y2="800" gradientUnits="userSpaceOnUse">
      <stop stop-color="#101114"/>
      <stop offset="1" stop-color="#332B09"/>
    </linearGradient>
    <linearGradient id="field" x1="210" y1="270" x2="980" y2="660" gradientUnits="userSpaceOnUse">
      <stop stop-color="#86EFAC"/>
      <stop offset="1" stop-color="#22C55E"/>
    </linearGradient>
    <linearGradient id="goldGlow" x1="300" y1="170" x2="900" y2="650" gradientUnits="userSpaceOnUse">
      <stop stop-color="#FACC15" stop-opacity="0.6"/>
      <stop offset="1" stop-color="#FACC15" stop-opacity="0"/>
    </linearGradient>
  </defs>
  <rect width="1200" height="800" rx="48" fill="url(#bg)"/>
  <circle cx="980" cy="160" r="200" fill="url(#goldGlow)"/>
  <path d="M164 612L402 432C437 406 467 394 507 394H880C920 394 950 406 985 432L1054 484C1089 510 1098 557 1075 592L953 739C936 763 910 776 882 776H316C288 776 262 764 245 740L152 637C126 603 135 555 164 612Z" fill="url(#field)"/>
  <path d="M486 474H716V671H486Z" fill="none" stroke="#FFF7D6" stroke-width="8" rx="32"/>
  <circle cx="601" cy="571" r="18" fill="#FFF7D6" opacity="0.95"/>
  <path d="M298 362C380 236 503 170 640 170C782 170 907 241 980 366" stroke="#FFF7D6" stroke-width="18" stroke-linecap="round" opacity="0.34"/>
  <path d="M260 389C344 254 491 170 640 170C788 170 935 253 1020 389" stroke="#F8FAFC" stroke-width="10" stroke-linecap="round" opacity="0.9"/>
  <path d="M196 554L271 466L361 531L300 642Z" fill="#22543D" opacity="0.75"/>
  <path d="M887 466L994 548L952 655L850 575Z" fill="#22543D" opacity="0.75"/>
  <text x="72" y="110" fill="#F8FAFC" font-family="Inter, Arial, sans-serif" font-size="56" font-weight="800">Wembley Training Ground</text>
  <text x="72" y="158" fill="#FDE68A" font-family="Inter, Arial, sans-serif" font-size="28" font-weight="600">Big-match energy</text>
</svg>
